<?xml version="1.0" encoding="UTF-8"?> <svg xmlns="http://www.w3.org/2000/svg" data-v-423bf9ae="" viewBox="0 0 371 90" class="iconLeft"> <!----> <!----> <!----> <g data-v-423bf9ae="" id="cc265d07-6435-4b12-8514-b5babb333300" fill="#Fcad78" transform="matrix(5.159071316387888,0,0,5.159071316387888,78.28672875210648,7.9836637703763955)"> <path d="M1.16 1.36L3.35 1.36L3.35 1.36Q4.10 1.36 4.77 1.50L4.77 1.50L4.77 1.50Q5.43 1.65 5.93 1.99L5.93 1.99L5.93 1.99Q6.43 2.34 6.72 2.90L6.72 2.90L6.72 2.90Q7.01 3.46 7.01 4.30L7.01 4.30L7.01 4.30Q7.01 5.11 6.72 5.67L6.72 5.67L6.72 5.67Q6.43 6.23 5.94 6.58L5.94 6.58L5.94 6.58Q5.46 6.93 4.84 7.08L4.84 7.08L4.84 7.08Q4.21 7.24 3.56 7.24L3.56 7.24L2.56 7.24L2.56 10.50L1.16 10.50L1.16 1.36ZM2.56 5.99L3.44 5.99L3.44 5.99Q3.84 5.99 4.21 5.91L4.21 5.91L4.21 5.91Q4.59 5.82 4.89 5.63L4.89 5.63L4.89 5.63Q5.18 5.43 5.36 5.11L5.36 5.11L5.36 5.11Q5.53 4.79 5.53 4.30L5.53 4.30L5.53 4.30Q5.53 3.79 5.36 3.46L5.36 3.46L5.36 3.46Q5.18 3.14 4.88 2.95L4.88 2.95L4.88 2.95Q4.58 2.76 4.17 2.68L4.17 2.68L4.17 2.68Q3.77 2.60 3.32 2.60L3.32 2.60L2.56 2.60L2.56 5.99ZM11.90 10.67L11.90 10.67L11.90 10.67Q10.70 10.67 9.95 10.31L9.95 10.31L9.95 10.31Q9.20 9.95 8.78 9.39L8.78 9.39L8.78 9.39Q8.36 8.83 8.20 8.14L8.20 8.14L8.20 8.14Q8.05 7.45 8.05 6.78L8.05 6.78L8.05 6.78Q8.05 6.10 8.27 5.46L8.27 5.46L8.27 5.46Q8.48 4.82 8.90 4.31L8.90 4.31L8.90 4.31Q9.31 3.81 9.91 3.50L9.91 3.50L9.91 3.50Q10.51 3.19 11.30 3.19L11.30 3.19L11.30 3.19Q12.24 3.19 12.87 3.52L12.87 3.52L12.87 3.52Q13.50 3.85 13.87 4.38L13.87 4.38L13.87 4.38Q14.25 4.90 14.41 5.54L14.41 5.54L14.41 5.54Q14.56 6.17 14.56 6.78L14.56 6.78L14.56 7.22L9.45 7.22L9.45 7.22Q9.51 7.90 9.76 8.41L9.76 8.41L9.76 8.41Q9.87 8.64 10.04 8.86L10.04 8.86L10.04 8.86Q10.21 9.07 10.45 9.24L10.45 9.24L10.45 9.24Q10.70 9.41 11.02 9.51L11.02 9.51L11.02 9.51Q11.34 9.60 11.76 9.60L11.76 9.60L11.76 9.60Q12.21 9.60 12.61 9.50L12.61 9.50L12.61 9.50Q13.01 9.39 13.31 9.27L13.31 9.27L13.31 9.27Q13.68 9.11 13.99 8.92L13.99 8.92L14 10.12L14 10.12Q14 10.12 13.84 10.21L13.84 10.21L13.84 10.21Q13.68 10.30 13.40 10.40L13.40 10.40L13.40 10.40Q13.12 10.50 12.73 10.58L12.73 10.58L12.73 10.58Q12.35 10.67 11.90 10.67ZM9.45 6.24L13.16 6.24L13.16 6.24Q13.16 5.89 13.05 5.54L13.05 5.54L13.05 5.54Q12.95 5.18 12.73 4.89L12.73 4.89L12.73 4.89Q12.50 4.61 12.15 4.43L12.15 4.43L12.15 4.43Q11.80 4.26 11.30 4.26L11.30 4.26L11.30 4.26Q10.86 4.26 10.52 4.43L10.52 4.43L10.52 4.43Q10.18 4.61 9.94 4.89L9.94 4.89L9.94 4.89Q9.70 5.18 9.58 5.54L9.58 5.54L9.58 5.54Q9.45 5.89 9.45 6.24L9.45 6.24ZM20.31 3.30L20.31 4.47L20.31 4.47Q20.22 4.44 20.10 4.41L20.10 4.41L20.10 4.41Q20.01 4.38 19.89 4.36L19.89 4.36L19.89 4.36Q19.77 4.34 19.66 4.34L19.66 4.34L19.66 4.34Q19.05 4.34 18.66 4.61L18.66 4.61L18.66 4.61Q18.27 4.89 18.05 5.31L18.05 5.31L18.05 5.31Q17.82 5.73 17.73 6.24L17.73 6.24L17.73 6.24Q17.64 6.76 17.64 7.25L17.64 7.25L17.64 10.50L16.32 10.50L16.32 3.36L17.44 3.36L17.60 4.47L17.60 4.47Q17.79 4.12 18.03 3.84L18.03 3.84L18.03 3.84Q18.27 3.57 18.59 3.40L18.59 3.40L18.59 3.40Q18.91 3.23 19.33 3.20L19.33 3.20L19.33 3.20Q19.75 3.16 20.31 3.30L20.31 3.30ZM27.66 3.36L25.16 6.52L27.76 10.50L26.14 10.50L24.16 7.21L23.09 7.21L23.09 10.50L21.77 10.50L21.77 1.62L23.09 1.62L23.09 5.81L24.16 5.81L26.15 3.36L27.66 3.36ZM32.52 10.67L32.52 10.67L32.52 10.67Q31.32 10.67 30.57 10.31L30.57 10.31L30.57 10.31Q29.82 9.95 29.40 9.39L29.40 9.39L29.40 9.39Q28.98 8.83 28.83 8.14L28.83 8.14L28.83 8.14Q28.67 7.45 28.67 6.78L28.67 6.78L28.67 6.78Q28.67 6.10 28.89 5.46L28.89 5.46L28.89 5.46Q29.11 4.82 29.52 4.31L29.52 4.31L29.52 4.31Q29.93 3.81 30.53 3.50L30.53 3.50L30.53 3.50Q31.14 3.19 31.92 3.19L31.92 3.19L31.92 3.19Q32.86 3.19 33.49 3.52L33.49 3.52L33.49 3.52Q34.12 3.85 34.50 4.38L34.50 4.38L34.50 4.38Q34.87 4.90 35.03 5.54L35.03 5.54L35.03 5.54Q35.18 6.17 35.18 6.78L35.18 6.78L35.18 7.22L30.07 7.22L30.07 7.22Q30.13 7.90 30.38 8.41L30.38 8.41L30.38 8.41Q30.49 8.64 30.66 8.86L30.66 8.86L30.66 8.86Q30.83 9.07 31.07 9.24L31.07 9.24L31.07 9.24Q31.32 9.41 31.64 9.51L31.64 9.51L31.64 9.51Q31.96 9.60 32.38 9.60L32.38 9.60L32.38 9.60Q32.83 9.60 33.23 9.50L33.23 9.50L33.23 9.50Q33.63 9.39 33.94 9.27L33.94 9.27L33.94 9.27Q34.30 9.11 34.61 8.92L34.61 8.92L34.62 10.12L34.62 10.12Q34.62 10.12 34.46 10.21L34.46 10.21L34.46 10.21Q34.30 10.30 34.02 10.40L34.02 10.40L34.02 10.40Q33.74 10.50 33.35 10.58L33.35 10.58L33.35 10.58Q32.97 10.67 32.52 10.67ZM30.07 6.24L33.78 6.24L33.78 6.24Q33.78 5.89 33.68 5.54L33.68 5.54L33.68 5.54Q33.57 5.18 33.35 4.89L33.35 4.89L33.35 4.89Q33.12 4.61 32.77 4.43L32.77 4.43L32.77 4.43Q32.42 4.26 31.92 4.26L31.92 4.26L31.92 4.26Q31.49 4.26 31.14 4.43L31.14 4.43L31.14 4.43Q30.80 4.61 30.56 4.89L30.56 4.89L30.56 4.89Q30.32 5.18 30.20 5.54L30.20 5.54L30.20 5.54Q30.07 5.89 30.07 6.24L30.07 6.24ZM39.76 3.19L39.76 3.19L39.76 3.19Q40.53 3.23 41.13 3.51L41.13 3.51L41.13 3.51Q41.38 3.64 41.64 3.82L41.64 3.82L41.64 3.82Q41.89 4.00 42.08 4.27L42.08 4.27L42.08 4.27Q42.28 4.54 42.40 4.89L42.40 4.89L42.40 4.89Q42.52 5.25 42.52 5.73L42.52 5.73L42.52 10.50L41.29 10.50L41.12 9.63L41.12 9.63Q41.12 9.63 40.98 9.80L40.98 9.80L40.98 9.80Q40.84 9.97 40.57 10.16L40.57 10.16L40.57 10.16Q40.31 10.35 39.92 10.51L39.92 10.51L39.92 10.51Q39.54 10.67 39.06 10.67L39.06 10.67L39.06 10.67Q37.90 10.67 37.18 10.14L37.18 10.14L37.18 10.14Q36.47 9.62 36.47 8.46L36.47 8.46L36.47 8.46Q36.47 7.78 36.79 7.34L36.79 7.34L36.79 7.34Q37.11 6.90 37.58 6.64L37.58 6.64L37.58 6.64Q38.05 6.38 38.58 6.29L38.58 6.29L38.58 6.29Q39.10 6.19 39.51 6.19L39.51 6.19L41.20 6.19L41.20 5.71L41.20 5.71Q41.15 5.07 40.86 4.75L40.86 4.75L40.86 4.75Q40.57 4.42 40.16 4.32L40.16 4.32L40.16 4.32Q39.75 4.21 39.26 4.29L39.26 4.29L39.26 4.29Q38.78 4.37 38.36 4.50L38.36 4.50L38.36 4.50Q37.94 4.63 37.63 4.78L37.63 4.78L37.63 4.78Q37.32 4.93 37.24 4.98L37.24 4.98L37.24 3.86L37.24 3.86Q37.63 3.68 38.05 3.53L38.05 3.53L38.05 3.53Q38.42 3.40 38.86 3.30L38.86 3.30L38.86 3.30Q39.31 3.19 39.76 3.19ZM39.17 9.60L39.17 9.60L39.17 9.60Q40.01 9.60 40.54 9.21L40.54 9.21L40.54 9.21Q41.08 8.81 41.20 8.16L41.20 8.16L41.20 7.14L40.46 7.14L40.46 7.14Q40.19 7.14 39.75 7.16L39.75 7.16L39.75 7.16Q39.31 7.18 38.89 7.29L38.89 7.29L38.89 7.29Q38.47 7.41 38.16 7.67L38.16 7.67L38.16 7.67Q37.86 7.92 37.86 8.40L37.86 8.40L37.86 8.40Q37.86 8.69 37.98 8.92L37.98 8.92L37.98 8.92Q38.11 9.14 38.30 9.30L38.30 9.30L38.30 9.30Q38.49 9.45 38.72 9.53L38.72 9.53L38.72 9.53Q38.96 9.60 39.17 9.60ZM48.93 3.91L48.50 4.89L48.50 4.89Q47.67 4.26 46.76 4.26L46.76 4.26L46.76 4.26Q46.26 4.26 45.95 4.46L45.95 4.46L45.95 4.46Q45.65 4.66 45.65 5.15L45.65 5.15L45.65 5.15Q45.65 5.40 45.77 5.58L45.77 5.58L45.77 5.58Q45.89 5.75 46.09 5.88L46.09 5.88L46.09 5.88Q46.28 6.01 46.54 6.10L46.54 6.10L46.54 6.10Q46.79 6.20 47.07 6.30L47.07 6.30L47.07 6.30Q47.43 6.43 47.81 6.58L47.81 6.58L47.81 6.58Q48.19 6.73 48.49 6.98L48.49 6.98L48.49 6.98Q48.79 7.22 48.98 7.59L48.98 7.59L48.98 7.59Q49.17 7.97 49.17 8.54L49.17 8.54L49.17 8.54Q49.17 9.09 48.96 9.49L48.96 9.49L48.96 9.49Q48.76 9.90 48.42 10.16L48.42 10.16L48.42 10.16Q48.08 10.42 47.63 10.54L47.63 10.54L47.63 10.54Q47.19 10.67 46.73 10.67L46.73 10.67L46.73 10.67Q46.03 10.67 45.36 10.39L45.36 10.39L45.36 10.39Q44.69 10.11 44.21 9.58L44.21 9.58L44.63 8.65L44.63 8.65Q45.08 9.10 45.65 9.35L45.65 9.35L45.65 9.35Q46.21 9.60 46.76 9.60L46.76 9.60L46.76 9.60Q47.29 9.60 47.63 9.39L47.63 9.39L47.63 9.39Q47.98 9.17 47.99 8.67L47.99 8.67L47.99 8.67Q47.99 8.40 47.87 8.20L47.87 8.20L47.87 8.20Q47.75 8.01 47.56 7.86L47.56 7.86L47.56 7.86Q47.36 7.71 47.10 7.61L47.10 7.61L47.10 7.61Q46.83 7.50 46.55 7.39L46.55 7.39L46.55 7.39Q46.19 7.27 45.82 7.11L45.82 7.11L45.82 7.11Q45.46 6.96 45.16 6.72L45.16 6.72L45.16 6.72Q44.87 6.48 44.69 6.12L44.69 6.12L44.69 6.12Q44.51 5.75 44.51 5.22L44.51 5.22L44.51 5.22Q44.51 4.68 44.70 4.29L44.70 4.29L44.70 4.29Q44.88 3.91 45.21 3.66L45.21 3.66L45.21 3.66Q45.53 3.42 45.95 3.30L45.95 3.30L45.95 3.30Q46.37 3.19 46.83 3.19L46.83 3.19L46.83 3.19Q47.40 3.19 47.94 3.38L47.94 3.38L47.94 3.38Q48.48 3.57 48.93 3.91L48.93 3.91ZM55.20 3.36L56.71 3.36L54.04 10.12L54.04 10.12Q53.73 10.93 53.24 11.56L53.24 11.56L53.24 11.56Q53.03 11.83 52.75 12.09L52.75 12.09L52.75 12.09Q52.47 12.35 52.12 12.54L52.12 12.54L52.12 12.54Q51.77 12.74 51.35 12.87L51.35 12.87L51.35 12.87Q50.93 12.99 50.43 12.99L50.43 12.99L50.43 11.90L50.43 11.90Q51.17 11.90 51.61 11.62L51.61 11.62L51.61 11.62Q52.05 11.34 52.29 10.99L52.29 10.99L52.29 10.99Q52.56 10.60 52.67 10.08L52.67 10.08L49.95 3.36L51.46 3.36L53.37 9.18L55.20 3.36Z"></path> </g> <!----> <g data-v-423bf9ae="" id="bcb65087-43fa-438a-966c-7908e33b5e89" transform="matrix(2.8125,0,0,2.8125,-12.426001459360123,0)" stroke="none" fill="#FCAD78"> <path d="M27.377 11.377L16 0 4.623 11.377 16 22.753l11.377-11.376zM16 6.026l5.35 5.35L16 16.727l-5.35-5.35L16 6.026zM27.426 14.969l-5.664 5.664V32h5.664zM10.238 20.633l-5.664-5.664V32h5.664z"></path> </g> <!----> </svg> 